<svg data-name="Layer 1" xmlns="http://www.w3.org/2000/svg" viewBox="0 0 768 141.67"><title>SkytraxLogoCorporate</title><path d="M74.59 52.68H23.08c-6.38 0-11.74 1.5-16.07 4.41C2.36 60.24.08 64.41.08 69.69s2.28 9.37 6.93 12.52c4.33 2.91 9.69 4.41 16.07 4.41h28.91a13.69 13.69 0 0 1 5 .79c1.89.71 2.84 1.81 2.84 3.23s-.95 2.44-2.84 3.23a12.68 12.68 0 0 1-5 .95H11.34L0 109.47h52c6.93 0 12.6-1.65 17.17-5 4.81-3.47 7.25-8 7.25-13.63A16.46 16.46 0 0 0 69.23 77c-4.57-3.39-10.4-5-17.25-5h-28.9c-2.13 0-3.23-.79-3.23-2.29s1.1-2.28 3.23-2.28h40.17zM150.91 109.47l-40.8-27.96 40.48-28.83h-26.46L96.88 72.13V52.68H79.23v56.79h17.65V90.48l27.25 18.99h26.78M237.95 52.68H215.5l-19.85 23.08-21.27-23.08h-22.52l34.73 37.88v18.91h17.64V90.64l33.72-37.96M306.63 52.68H248.5l-11.34 14.73h23.39v42.06h17.64V67.41h17.02l11.42-14.73" fill="#34495e"/><path d="M376.17 109.47l-20.56-17.1a24 24 0 0 0 10.4-7.48 17.39 17.39 0 0 0 3.7-10.79c0-7.09-3.07-12.6-9.29-16.38-5.51-3.39-12.68-5-21.58-5H303l-11.5 14.73h49q11.11 0 11.11 6.62c0 2.28-1.26 3.94-3.7 5.12a18.29 18.29 0 0 1-7.4 1.34h-49v29h17.64V95.21h24.26l17.17 14.26zM405.56 109.47h66.71L436.75 59a15 15 0 0 0-4.72-4.41 12.67 12.67 0 0 0-6.54-2 12.9 12.9 0 0 0-6.54 2 16.32 16.32 0 0 0-4.8 4.41l-36.39 50.49h21.82l25.6-35.13 14.73 20.4h-23.72zM559.93 52.68h-22.84l-20.16 21.11-20.25-21.11h-22.76l28.04 28.9-26.78 27.89h22.37l19.38-20.32 19.29 20.32h22.45l-26.86-27.89 28.12-28.9M615.29 76.4L602 66.1l-22.41 10.3 14.17-16.67-12.98-10.3h21.51l13.55-16.67-.29 16.67h21.82l-22.1 10.3.02 16.67" fill="#34495e"/><path fill="#34495e" d="M598.2 44.15l-8.46-6.56-14.27 6.56 9.02-10.61-8.26-6.56h13.69l8.62-10.61-.18 10.61h13.89l-14.07 6.56.02 10.61M629.2 57.39c-1.72 11.47 138.54 19.56 138.54 19.56a70.39 70.39 0 0 1-5.3 21.45C684.79 82 625.08 80.07 629.2 57.39M768 70.84c0 1.24 0 2.48-.09 3.71C717.13 63 630.67 57.35 635.84 35.37A70.84 70.84 0 0 1 768 70.84M627.48 83.63c3.18 8.42 119.68 18.14 134.11 16.68a70.85 70.85 0 0 1-134.11-16.68"/></svg>